<?xml version="1.0" standalone="no"?>
<!DOCTYPE svg PUBLIC "-//W3C//DTD SVG 20010904//EN"
 "http://www.w3.org/TR/2001/REC-SVG-20010904/DTD/svg10.dtd">
<svg version="1.0" xmlns="http://www.w3.org/2000/svg"
 width="965.000000pt" height="965.000000pt" viewBox="0 0 965.000000 965.000000"
 preserveAspectRatio="xMidYMid meet">
<metadata>
Created by potrace 1.11, written by Peter Selinger 2001-2013
</metadata>
<g transform="translate(0.000000,965.000000) scale(0.100000,-0.100000)"
fill="#000000" stroke="none">
<path d="M4748 9640 c-3 -9 -34 -13 -97 -15 -121 -4 -222 -13 -346 -31 -112
-15 -120 -17 -225 -40 -41 -9 -79 -17 -85 -18 -5 -1 -16 -5 -22 -9 -7 -5 -13
-6 -13 -4 0 3 -44 -8 -97 -25 -54 -16 -105 -31 -113 -33 -23 -6 -152 -54 -175
-65 -20 -9 -75 -32 -85 -35 -3 0 -40 -18 -83 -38 -42 -20 -81 -37 -86 -37 -5
0 -11 -3 -13 -7 -1 -5 -21 -17 -43 -28 -136 -67 -505 -313 -505 -337 0 -4 -6
-8 -13 -8 -7 0 -19 -9 -27 -20 -8 -11 -18 -20 -23 -20 -4 0 -21 -13 -37 -30
-16 -16 -34 -30 -40 -30 -6 0 -8 -4 -5 -10 3 -5 1 -10 -5 -10 -15 0 -248 -237
-297 -302 -20 -26 -41 -48 -45 -48 -4 0 -8 -5 -8 -11 0 -7 -8 -19 -18 -28 -23
-21 -203 -271 -213 -296 -2 -5 -20 -35 -39 -65 -19 -30 -34 -57 -33 -60 1 -3
-5 -12 -13 -21 -8 -9 -11 -19 -7 -22 3 -4 2 -7 -3 -7 -6 0 -24 -28 -40 -62
-16 -35 -35 -69 -41 -76 -7 -7 -13 -18 -13 -23 0 -16 -3 -23 -26 -64 -12 -22
-23 -44 -24 -50 -1 -5 -10 -30 -21 -54 -11 -25 -27 -67 -37 -95 -9 -28 -19
-53 -22 -56 -3 -3 -7 -12 -8 -20 -2 -8 -16 -55 -32 -105 -52 -165 -99 -364
-116 -490 -3 -27 -8 -57 -9 -66 -7 -36 -16 -118 -19 -181 -2 -37 -6 -71 -8
-75 -6 -10 -1 -409 6 -478 14 -161 39 -326 70 -460 22 -100 39 -165 57 -222
31 -102 59 -186 69 -208 4 -11 23 -58 41 -105 18 -47 39 -94 46 -106 7 -11 10
-24 6 -27 -3 -4 -1 -7 6 -7 7 0 9 -4 6 -10 -3 -5 -1 -10 6 -10 7 0 9 -3 6 -7
-4 -3 -1 -13 7 -22 8 -9 15 -18 16 -21 6 -32 14 -50 22 -50 5 0 6 -4 3 -10 -3
-5 -1 -10 6 -10 7 0 10 -3 7 -6 -7 -6 130 -247 143 -252 5 -2 9 -8 9 -12 0 -9
79 -140 90 -150 3 -3 30 -43 60 -90 30 -47 63 -94 72 -104 10 -11 18 -23 18
-28 0 -7 21 -35 48 -64 7 -7 13 -17 13 -21 0 -4 9 -18 19 -31 11 -12 20 -27
20 -32 0 -6 5 -10 10 -10 6 0 10 -5 10 -12 0 -6 7 -18 15 -27 17 -18 60 -76
124 -168 24 -35 48 -63 52 -63 5 0 8 -4 6 -9 -1 -6 10 -25 25 -43 57 -69 138
-179 138 -187 0 -5 4 -11 8 -13 5 -1 35 -38 68 -80 32 -43 84 -110 114 -149
30 -40 67 -86 82 -103 15 -17 28 -35 28 -39 0 -4 10 -19 23 -33 38 -43 51 -58
97 -119 25 -33 51 -66 58 -73 7 -8 25 -30 40 -50 15 -21 39 -50 54 -67 16 -16
28 -36 28 -43 0 -7 5 -10 10 -7 6 3 10 0 10 -7 0 -8 8 -21 18 -29 26 -23 62
-68 62 -77 0 -4 8 -15 17 -24 10 -9 23 -23 28 -30 6 -7 31 -39 58 -70 26 -31
47 -59 47 -62 0 -3 10 -16 23 -28 12 -13 67 -79 122 -147 55 -68 110 -134 123
-147 13 -13 21 -24 18 -24 -3 0 5 -10 17 -23 12 -13 31 -34 42 -48 63 -78 110
-135 115 -139 3 -3 25 -30 50 -60 49 -60 57 -70 151 -180 36 -41 85 -100 109
-130 25 -30 62 -72 82 -95 21 -22 40 -48 44 -57 3 -10 11 -18 17 -18 7 0 19
-11 27 -24 16 -25 75 -95 151 -178 l45 -50 80 87 c43 48 96 105 116 126 20 22
34 39 32 39 -2 0 11 15 31 34 19 19 35 36 35 39 0 3 17 22 38 44 20 21 53 58
72 82 19 23 49 57 65 75 30 33 215 249 247 290 10 11 23 27 30 35 7 8 28 33
48 56 19 22 49 58 65 79 17 21 38 48 49 60 10 11 44 53 74 91 31 39 61 75 67
81 5 6 24 29 40 50 50 64 149 188 160 200 5 7 19 24 30 40 11 15 34 44 50 65
17 20 39 49 50 65 11 15 31 42 46 59 14 16 65 84 114 150 49 66 91 122 95 125
3 3 21 28 40 55 19 28 38 52 42 53 4 2 8 10 8 17 0 7 4 15 8 17 4 2 45 55 89
118 45 63 87 120 93 127 5 7 10 15 10 18 0 3 4 11 10 18 43 53 60 76 60 81 0
4 18 31 40 61 22 30 38 55 34 55 -4 0 3 8 14 19 12 10 22 21 22 24 0 9 63 102
72 105 4 2 8 8 8 14 0 6 11 26 25 44 14 18 25 37 25 41 0 5 8 18 18 29 9 11
26 35 36 54 11 19 24 40 28 45 18 21 118 187 118 195 0 5 6 15 13 22 20 19
127 208 119 208 -4 0 -1 4 6 9 14 8 66 98 83 144 6 15 15 27 19 27 5 0 11 13
15 30 4 16 14 34 23 40 9 5 13 10 9 10 -9 0 22 61 36 71 5 3 9 9 8 12 0 4 29
66 64 139 96 202 163 356 157 362 -3 3 0 6 6 6 7 0 11 3 10 8 0 4 2 16 7 27
61 160 105 289 108 318 1 9 5 17 9 17 4 0 8 11 8 23 0 13 3 27 7 31 4 3 8 12
9 19 3 17 15 70 18 82 1 6 7 28 11 50 13 56 12 55 15 58 1 1 3 13 5 27 2 14 6
34 8 46 3 11 8 45 11 75 3 30 9 68 12 84 13 65 5 402 -12 545 -2 19 -6 55 -9
80 -3 25 -7 59 -10 75 -3 17 -7 41 -9 55 -3 14 -5 25 -6 25 -2 0 -6 24 -14 72
-3 21 -11 56 -16 78 -6 22 -13 49 -15 60 -5 25 -11 46 -17 65 -7 18 -47 158
-53 182 -2 9 -9 26 -15 37 -6 12 -8 21 -4 21 3 0 1 6 -5 14 -7 8 -13 23 -16
34 -8 42 -95 243 -110 254 -5 4 -7 8 -2 8 8 0 -114 238 -144 282 -11 14 -19
31 -19 37 0 6 -4 11 -10 11 -5 0 -10 5 -10 10 0 13 -100 164 -112 168 -4 2 -8
8 -8 13 0 16 -89 130 -221 284 -108 125 -280 291 -396 382 -20 15 -47 38 -61
51 -14 12 -28 22 -31 22 -3 0 -17 10 -31 23 -14 12 -77 57 -141 99 -109 72
-164 105 -269 159 -25 13 -48 28 -51 32 -3 5 -10 9 -15 9 -5 1 -42 16 -83 35
-76 35 -264 112 -291 119 -23 6 -142 44 -165 53 -18 8 -133 36 -180 46 -11 2
-40 8 -65 13 -25 6 -63 13 -85 16 -22 4 -47 8 -55 11 -8 2 -42 7 -75 10 -33 4
-71 9 -85 11 -14 2 -91 6 -171 10 -113 5 -148 3 -151 -6z m102 -1674 c100 -5
145 -10 245 -30 45 -9 151 -37 170 -45 11 -5 36 -14 55 -21 86 -30 230 -100
230 -112 0 -5 3 -7 8 -4 6 4 100 -52 137 -81 147 -117 238 -202 311 -293 16
-19 34 -41 40 -47 7 -7 22 -29 35 -50 13 -21 26 -40 29 -43 4 -3 15 -21 26
-40 10 -19 25 -43 33 -52 8 -10 10 -18 5 -18 -5 0 -4 -4 2 -8 12 -8 64 -115
64 -131 0 -6 5 -11 10 -11 6 0 10 -6 9 -12 -2 -7 5 -30 14 -51 49 -112 94
-330 100 -474 1 -35 6 -63 10 -63 5 0 5 -5 1 -11 -4 -7 -8 -55 -10 -108 -5
-127 -10 -197 -17 -208 -3 -5 -8 -27 -11 -49 -4 -22 -15 -71 -26 -109 -11 -37
-18 -70 -17 -74 0 -3 -4 -16 -11 -27 -6 -12 -8 -24 -5 -28 3 -3 1 -6 -6 -6 -7
0 -10 -3 -8 -7 7 -11 -75 -199 -98 -226 -11 -12 -18 -23 -17 -24 8 -11 -78
-149 -147 -237 -53 -67 -226 -246 -239 -246 -4 0 -15 -8 -23 -17 -41 -46 -179
-135 -302 -196 -99 -48 -305 -122 -315 -113 -2 3 -13 1 -23 -4 -9 -6 -34 -13
-54 -16 -21 -3 -47 -8 -59 -10 -100 -21 -386 -21 -482 0 -16 4 -44 8 -63 11
-19 2 -38 8 -44 14 -5 5 -15 7 -22 5 -19 -8 -213 59 -313 107 -80 39 -218 120
-259 153 -74 59 -165 137 -198 171 -253 257 -420 599 -472 966 -16 111 -9 411
12 509 3 14 8 39 11 55 25 140 104 351 182 483 18 28 28 52 24 52 -4 0 -2 4 4
8 7 4 32 37 57 74 25 36 54 76 64 88 10 12 26 31 36 43 27 32 142 149 165 169
103 85 268 198 290 198 7 0 12 5 12 11 0 5 5 7 10 4 6 -3 10 -1 10 4 0 6 6 11
14 11 8 0 21 7 30 15 8 9 17 15 18 14 6 -4 53 14 66 24 8 6 21 12 30 13 10 1
44 12 77 24 33 12 71 24 85 26 14 3 33 7 42 10 19 6 52 13 88 20 14 2 34 6 45
9 11 2 58 7 105 11 47 3 87 8 88 9 2 2 9 2 15 0 7 -2 64 -6 127 -9z"/>
<path d="M3510 590 c0 -5 5 -10 11 -10 5 0 7 5 4 10 -3 6 -8 10 -11 10 -2 0
-4 -4 -4 -10z"/>
<path d="M3195 571 c-3 -5 -2 -12 3 -15 5 -3 9 1 9 9 0 17 -3 19 -12 6z"/>
<path d="M4695 561 c-3 -5 -2 -12 3 -15 5 -3 9 1 9 9 0 17 -3 19 -12 6z"/>
<path d="M5236 557 c3 -10 9 -15 12 -12 3 3 0 11 -7 18 -10 9 -11 8 -5 -6z"/>
<path d="M6710 550 c0 -5 5 -10 11 -10 5 0 7 5 4 10 -3 6 -8 10 -11 10 -2 0
-4 -4 -4 -10z"/>
<path d="M5479 523 c-13 -16 -12 -17 4 -4 9 7 17 15 17 17 0 8 -8 3 -21 -13z"/>
<path d="M3276 503 c-6 -14 -5 -15 5 -6 7 7 10 15 7 18 -3 3 -9 -2 -12 -12z"/>
<path d="M3615 510 c-3 -5 -1 -10 4 -10 6 0 11 5 11 10 0 6 -2 10 -4 10 -3 0
-8 -4 -11 -10z"/>
<path d="M4095 510 c-3 -5 -1 -10 4 -10 6 0 11 5 11 10 0 6 -2 10 -4 10 -3 0
-8 -4 -11 -10z"/>
<path d="M5535 510 c-3 -5 -1 -10 4 -10 6 0 11 5 11 10 0 6 -2 10 -4 10 -3 0
-8 -4 -11 -10z"/>
<path d="M5575 510 c-3 -5 -1 -10 4 -10 6 0 11 5 11 10 0 6 -2 10 -4 10 -3 0
-8 -4 -11 -10z"/>
<path d="M5850 510 c0 -5 5 -10 11 -10 5 0 7 5 4 10 -3 6 -8 10 -11 10 -2 0
-4 -4 -4 -10z"/>
<path d="M5933 499 c-2 -23 3 -25 10 -4 4 8 3 16 -1 19 -4 3 -9 -4 -9 -15z"/>
<path d="M4959 497 c8 -9 16 -15 19 -12 3 3 15 -3 26 -12 21 -18 21 -18 2 5
-11 12 -21 20 -24 17 -3 -3 -12 1 -21 8 -14 11 -14 10 -2 -6z"/>
<path d="M5165 490 c10 -11 20 -20 23 -20 3 0 -3 9 -13 20 -10 11 -20 20 -23
20 -3 0 3 -9 13 -20z"/>
<path d="M2995 491 c-3 -5 -2 -12 3 -15 5 -3 9 1 9 9 0 17 -3 19 -12 6z"/>
<path d="M3057 485 c-4 -8 -3 -16 1 -19 4 -3 9 4 9 15 2 23 -3 25 -10 4z"/>
<path d="M3666 488 c3 -5 10 -6 15 -3 13 9 11 12 -6 12 -8 0 -12 -4 -9 -9z"/>
<path d="M3740 496 c0 -2 8 -10 18 -17 15 -13 16 -12 3 4 -13 16 -21 21 -21
13z"/>
<path d="M3916 488 c3 -5 10 -6 15 -3 13 9 11 12 -6 12 -8 0 -12 -4 -9 -9z"/>
<path d="M3976 492 c-3 -5 1 -9 9 -9 8 0 12 4 9 9 -3 4 -7 8 -9 8 -2 0 -6 -4
-9 -8z"/>
<path d="M4317 482 c-15 -16 -15 -19 -2 -19 8 0 13 3 10 5 -3 3 0 11 6 19 17
20 5 16 -14 -5z"/>
<path d="M4353 482 c-8 -14 -8 -19 1 -19 7 0 13 9 13 19 1 10 1 18 0 18 -1 0
-7 -8 -14 -18z"/>
<path d="M4414 488 c-4 -7 -3 -10 1 -5 5 4 18 -1 29 -10 21 -18 21 -18 2 5
-22 26 -23 26 -32 10z"/>
<path d="M4640 496 c0 -2 8 -10 18 -17 15 -13 16 -12 3 4 -13 16 -21 21 -21
13z"/>
<path d="M4846 492 c-3 -5 1 -9 9 -9 8 0 12 4 9 9 -3 4 -7 8 -9 8 -2 0 -6 -4
-9 -8z"/>
<path d="M5220 496 c0 -2 8 -10 18 -17 15 -13 16 -12 3 4 -13 16 -21 21 -21
13z"/>
<path d="M5440 496 c0 -2 8 -10 18 -17 15 -13 16 -12 3 4 -13 16 -21 21 -21
13z"/>
<path d="M5633 493 c4 -3 1 -13 -6 -22 -11 -14 -10 -14 5 -2 16 12 16 31 1 31
-4 0 -3 -3 0 -7z"/>
<path d="M5706 488 c3 -5 10 -6 15 -3 13 9 11 12 -6 12 -8 0 -12 -4 -9 -9z"/>
<path d="M5746 492 c-2 -4 4 -8 14 -8 10 0 16 4 14 8 -3 4 -9 8 -14 8 -5 0
-11 -4 -14 -8z"/>
<path d="M5886 492 c-3 -5 1 -9 9 -9 8 0 12 4 9 9 -3 4 -7 8 -9 8 -2 0 -6 -4
-9 -8z"/>
<path d="M6010 489 c0 -5 5 -7 10 -4 6 3 10 8 10 11 0 2 -4 4 -10 4 -5 0 -10
-5 -10 -11z"/>
<path d="M6356 492 c-3 -5 1 -9 9 -9 8 0 12 4 9 9 -3 4 -7 8 -9 8 -2 0 -6 -4
-9 -8z"/>
<path d="M4477 483 c-10 -9 -9 -23 1 -23 5 0 9 7 9 15 0 17 -1 18 -10 8z"/>
<path d="M5516 477 c3 -10 9 -15 12 -12 3 3 0 11 -7 18 -10 9 -11 8 -5 -6z"/>
<path d="M6675 479 c-4 -6 -5 -12 -2 -15 2 -3 7 2 10 11 7 17 1 20 -8 4z"/>
<path d="M3133 465 c0 -8 4 -12 9 -9 5 3 6 10 3 15 -9 13 -12 11 -12 -6z"/>
<path d="M3166 468 c3 -5 10 -6 15 -3 13 9 11 12 -6 12 -8 0 -12 -4 -9 -9z"/>
<path d="M3419 478 c-6 -20 -6 -39 0 -42 4 -3 7 6 7 20 0 20 -4 32 -7 22z"/>
<path d="M3706 468 c3 -4 9 -8 15 -8 5 0 9 4 9 8 0 5 -7 9 -15 9 -8 0 -12 -4
-9 -9z"/>
<path d="M3790 468 c0 -4 4 -8 9 -8 6 0 12 4 15 8 3 5 -1 9 -9 9 -8 0 -15 -4
-15 -9z"/>
<path d="M4224 472 c4 -3 14 -7 22 -8 9 -1 13 0 10 4 -4 3 -14 7 -22 8 -9 1
-13 0 -10 -4z"/>
<path d="M4505 470 c-3 -6 1 -7 9 -4 18 7 21 14 7 14 -6 0 -13 -4 -16 -10z"/>
<path d="M4710 466 c7 -7 13 -7 20 0 6 6 3 10 -10 10 -13 0 -16 -4 -10 -10z"/>
<path d="M4786 466 c10 -8 21 -12 24 -10 5 6 -21 24 -34 24 -6 0 -1 -6 10 -14z"/>
<path d="M4835 460 c11 -14 20 -26 21 -28 1 -1 4 6 7 18 3 11 1 17 -4 14 -6
-3 -18 0 -27 7 -12 10 -12 7 3 -11z"/>
<path d="M4905 470 c-3 -6 1 -7 9 -4 18 7 21 14 7 14 -6 0 -13 -4 -16 -10z"/>
<path d="M4936 465 c-3 -9 -6 -22 -5 -28 0 -7 5 -1 10 12 5 13 8 26 5 28 -2 2
-6 -3 -10 -12z"/>
<path d="M5109 467 c7 -7 5 -14 -6 -22 -13 -10 -13 -14 -3 -20 8 -5 11 -4 6 3
-3 5 -1 12 6 14 17 6 18 35 2 35 -10 0 -11 -4 -5 -10z"/>
<path d="M5148 469 c7 -9 10 -25 6 -35 -5 -18 -5 -18 6 0 10 15 9 21 -6 35
-16 14 -17 14 -6 0z"/>
<path d="M6413 459 c-2 -23 3 -25 10 -4 4 8 3 16 -1 19 -4 3 -9 -4 -9 -15z"/>
<path d="M6446 468 c3 -5 10 -6 15 -3 13 9 11 12 -6 12 -8 0 -12 -4 -9 -9z"/>
<path d="M6539 478 c-5 -18 -6 -38 -1 -34 7 8 12 36 6 36 -2 0 -4 -1 -5 -2z"/>
<path d="M3473 455 c0 -8 4 -12 9 -9 5 3 6 10 3 15 -9 13 -12 11 -12 -6z"/>
<path d="M3675 460 c-4 -6 -10 -8 -14 -6 -4 3 -8 -1 -8 -9 0 -10 4 -12 12 -5
7 5 14 8 17 5 2 -3 5 2 5 10 0 18 -3 19 -12 5z"/>
<path d="M3895 460 c-4 -6 -11 -8 -16 -5 -5 4 -9 1 -9 -4 0 -16 16 -13 30 4 7
8 10 15 7 15 -3 0 -9 -5 -12 -10z"/>
<path d="M4175 460 c-4 -6 -12 -7 -18 -4 -7 4 -8 3 -4 -1 13 -15 34 -14 34 1
0 17 -4 18 -12 4z"/>
<path d="M4413 455 c0 -8 4 -15 9 -15 4 0 8 4 8 9 0 6 -4 12 -8 15 -5 3 -9 -1
-9 -9z"/>
<path d="M4535 459 c-4 -6 -5 -12 -2 -15 2 -3 7 2 10 11 7 17 1 20 -8 4z"/>
<path d="M4635 460 c-4 -6 -11 -8 -16 -5 -5 4 -9 1 -9 -4 0 -16 16 -13 30 4 7
8 10 15 7 15 -3 0 -9 -5 -12 -10z"/>
<path d="M4977 449 c4 -13 8 -18 11 -10 2 7 -1 18 -6 23 -8 8 -9 4 -5 -13z"/>
<path d="M5059 458 c14 -19 32 -15 30 5 0 8 -2 8 -6 -1 -4 -10 -8 -10 -21 0
-15 12 -16 11 -3 -4z"/>
<path d="M5255 459 c-4 -6 -5 -12 -2 -15 2 -3 7 2 10 11 7 17 1 20 -8 4z"/>
<path d="M5335 459 c-4 -6 -5 -12 -2 -15 2 -3 7 2 10 11 7 17 1 20 -8 4z"/>
<path d="M5407 452 c-20 -22 -21 -32 -5 -32 6 0 8 3 5 7 -4 3 0 15 10 25 9 10
14 18 11 18 -3 0 -12 -8 -21 -18z"/>
<path d="M2850 449 c0 -5 5 -7 10 -4 6 3 10 8 10 11 0 2 -4 4 -10 4 -5 0 -10
-5 -10 -11z"/>
<path d="M3246 452 c-3 -5 1 -9 9 -9 8 0 12 4 9 9 -3 4 -7 8 -9 8 -2 0 -6 -4
-9 -8z"/>
<path d="M3370 450 c0 -5 5 -10 11 -10 5 0 7 5 4 10 -3 6 -8 10 -11 10 -2 0
-4 -4 -4 -10z"/>
<path d="M4570 448 c0 -4 4 -8 9 -8 6 0 12 4 15 8 3 5 -1 9 -9 9 -8 0 -15 -4
-15 -9z"/>
<path d="M4666 448 c3 -5 10 -6 15 -3 13 9 11 12 -6 12 -8 0 -12 -4 -9 -9z"/>
<path d="M4756 448 c3 -5 10 -6 15 -3 13 9 11 12 -6 12 -8 0 -12 -4 -9 -9z"/>
<path d="M5305 449 c-4 -6 -5 -12 -2 -15 2 -3 7 2 10 11 7 17 1 20 -8 4z"/>
<path d="M5635 450 c-2 -3 5 -7 16 -7 10 -1 19 2 19 6 0 9 -29 10 -35 1z"/>
<path d="M5693 445 c0 -8 4 -12 9 -9 4 3 8 9 8 15 0 5 -4 9 -8 9 -5 0 -9 -7
-9 -15z"/>
<path d="M6189 447 c6 -8 7 -18 3 -22 -4 -5 -1 -5 6 -1 10 6 10 11 1 22 -6 8
-14 14 -16 14 -3 0 0 -6 6 -13z"/>
<path d="M6600 450 c-9 -6 -10 -10 -3 -10 6 0 15 5 18 10 8 12 4 12 -15 0z"/>
<path d="M6739 458 c-5 -18 -6 -38 -1 -34 7 8 12 36 6 36 -2 0 -4 -1 -5 -2z"/>
<path d="M3714 425 c0 -13 3 -22 7 -19 8 4 6 30 -2 38 -3 3 -5 -5 -5 -19z"/>
<path d="M3830 446 c0 -2 8 -10 18 -17 15 -13 16 -12 3 4 -13 16 -21 21 -21
13z"/>
<path d="M4233 435 c0 -8 4 -15 9 -15 4 0 8 4 8 9 0 6 -4 12 -8 15 -5 3 -9 -1
-9 -9z"/>
<path d="M5279 448 c-5 -18 -6 -38 -1 -34 7 8 12 36 6 36 -2 0 -4 -1 -5 -2z"/>
<path d="M5513 435 c0 -8 4 -15 9 -15 4 0 8 4 8 9 0 6 -4 12 -8 15 -5 3 -9 -1
-9 -9z"/>
<path d="M5790 446 c0 -2 8 -10 18 -17 15 -13 16 -12 3 4 -13 16 -21 21 -21
13z"/>
<path d="M2776 428 c3 -5 10 -6 15 -3 13 9 11 12 -6 12 -8 0 -12 -4 -9 -9z"/>
<path d="M2890 429 c0 -5 5 -7 10 -4 6 3 10 8 10 11 0 2 -4 4 -10 4 -5 0 -10
-5 -10 -11z"/>
<path d="M2930 430 c0 -5 5 -10 11 -10 5 0 7 5 4 10 -3 6 -8 10 -11 10 -2 0
-4 -4 -4 -10z"/>
<path d="M3050 430 c0 -5 5 -10 11 -10 5 0 7 5 4 10 -3 6 -8 10 -11 10 -2 0
-4 -4 -4 -10z"/>
<path d="M3590 428 c0 -4 4 -8 9 -8 6 0 12 4 15 8 3 5 -1 9 -9 9 -8 0 -15 -4
-15 -9z"/>
<path d="M3746 428 c3 -5 10 -6 15 -3 13 9 11 12 -6 12 -8 0 -12 -4 -9 -9z"/>
<path d="M3950 432 c0 -12 22 -32 35 -32 5 0 2 5 -8 11 -9 6 -15 14 -12 20 4
5 1 9 -4 9 -6 0 -11 -4 -11 -8z"/>
<path d="M4321 431 c-8 -5 -9 -11 -3 -15 5 -3 12 1 16 9 6 17 6 18 -13 6z"/>
<path d="M4390 430 c8 -5 20 -10 25 -10 6 0 3 5 -5 10 -8 5 -19 10 -25 10 -5
0 -3 -5 5 -10z"/>
<path d="M4513 427 c4 -11 4 -24 0 -30 -4 -7 -10 -2 -15 13 l-7 25 2 -25 c1
-14 8 -24 15 -22 16 3 16 -15 0 -22 -7 -3 -1 -3 14 -1 15 2 29 -1 32 -6 2 -5
3 -4 2 3 -2 7 -9 12 -15 11 -6 -2 -11 0 -12 5 0 4 -2 17 -3 29 -2 13 -6 26
-11 30 -4 5 -5 0 -2 -10z"/>
<path d="M4664 426 c11 -9 24 -16 30 -16 12 0 7 5 -24 19 -24 11 -24 11 -6 -3z"/>
<path d="M4710 430 c0 -5 5 -10 10 -10 6 0 10 5 10 10 0 6 -4 10 -10 10 -5 0
-10 -4 -10 -10z"/>
<path d="M4760 425 c-14 -8 -20 -14 -14 -15 5 0 19 7 30 15 24 18 16 19 -16 0z"/>
<path d="M4831 435 c1 -19 18 -51 18 -35 0 8 -4 22 -9 30 -5 8 -9 11 -9 5z"/>
<path d="M5033 425 c0 -8 4 -12 9 -9 4 3 8 9 8 15 0 5 -4 9 -8 9 -5 0 -9 -7
-9 -15z"/>
<path d="M5585 429 c-3 -4 2 -6 10 -5 21 3 28 13 10 13 -9 0 -18 -4 -20 -8z"/>
<path d="M5840 430 c-9 -6 -10 -10 -3 -10 6 0 15 5 18 10 8 12 4 12 -15 0z"/>
<path d="M5875 432 c3 -3 -1 -12 -7 -21 -8 -10 -4 -9 10 3 26 23 26 23 7 23
-8 0 -13 -3 -10 -5z"/>
<path d="M3825 415 c11 -9 19 -19 17 -23 -2 -3 1 -7 8 -9 6 -1 7 0 0 4 -5 2
-8 9 -5 13 3 5 -5 14 -17 20 -22 11 -22 11 -3 -5z"/>
<path d="M4106 411 c5 -17 3 -21 -6 -16 -9 5 -11 4 -6 -3 10 -16 14 -15 27 9
6 13 7 19 1 15 -6 -3 -13 0 -16 6 -3 7 -3 2 0 -11z"/>
<path d="M4460 421 c0 -6 4 -13 10 -16 6 -3 7 1 4 9 -7 18 -14 21 -14 7z"/>
<path d="M4595 420 c3 -5 8 -10 11 -10 2 0 4 5 4 10 0 6 -5 10 -11 10 -5 0 -7
-4 -4 -10z"/>
<path d="M4877 419 c7 -7 15 -10 18 -7 3 3 -2 9 -12 12 -14 6 -15 5 -6 -5z"/>
<path d="M5060 420 c0 -19 -3 -25 -19 -37 -9 -7 -11 -13 -6 -13 6 0 3 -5 -5
-10 -10 -6 -11 -10 -2 -10 6 0 12 -5 12 -11 0 -5 -4 -7 -10 -4 -5 3 -10 1 -10
-5 0 -7 6 -10 13 -7 6 2 12 15 12 28 -1 13 4 27 9 31 10 7 19 48 11 48 -3 0
-5 -4 -5 -10z"/>
<path d="M5174 413 c3 -18 -1 -23 -17 -24 -19 -1 -19 -2 -3 -6 25 -7 36 8 25
32 -9 18 -9 18 -5 -2z"/>
<path d="M5205 420 c-17 -7 -17 -9 -2 -9 9 -1 16 -6 15 -13 -3 -14 31 -23 42
-11 4 4 4 17 -1 28 -9 18 -9 18 -5 -2 3 -17 -1 -23 -14 -23 -13 0 -18 6 -15
20 2 11 3 20 2 19 -1 0 -11 -4 -22 -9z"/>
<path d="M5333 414 c3 -15 -4 -26 -24 -38 -16 -10 -29 -13 -29 -7 0 5 5 11 12
13 6 2 12 12 14 21 1 9 -2 14 -8 11 -5 -3 -7 -8 -4 -12 3 -3 -2 -10 -11 -17
-21 -16 -8 -39 15 -26 40 22 50 36 41 56 -9 19 -9 19 -6 -1z"/>
<path d="M5774 411 c0 -13 6 -17 19 -13 10 2 16 5 15 6 -2 1 -10 7 -18 13 -13
10 -16 8 -16 -6z"/>
<path d="M6275 421 c-3 -5 -2 -12 3 -15 5 -3 9 1 9 9 0 17 -3 19 -12 6z"/>
<path d="M6794 419 c-3 -6 -2 -15 3 -20 5 -5 9 -1 9 11 0 23 -2 24 -12 9z"/>
<path d="M2835 410 c3 -5 8 -10 11 -10 2 0 4 5 4 10 0 6 -5 10 -11 10 -5 0 -7
-4 -4 -10z"/>
<path d="M3393 404 c0 -9 4 -11 12 -4 7 5 14 9 16 7 2 -1 3 0 1 2 -7 11 -29 7
-29 -5z"/>
<path d="M3675 412 c3 -3 1 -10 -5 -16 -6 -8 -2 -12 13 -13 12 0 16 1 9 4 -9
3 -10 9 -3 17 8 9 6 13 -4 13 -8 0 -13 -3 -10 -5z"/>
<path d="M3766 412 c-3 -5 1 -9 9 -9 8 0 12 4 9 9 -3 4 -7 8 -9 8 -2 0 -6 -4
-9 -8z"/>
<path d="M3896 412 c-3 -4 4 -9 15 -9 23 -2 25 3 4 10 -8 4 -16 3 -19 -1z"/>
<path d="M4190 410 c0 -5 7 -7 15 -4 8 4 15 8 15 10 0 2 -7 4 -15 4 -8 0 -15
-4 -15 -10z"/>
<path d="M4260 410 c0 -6 7 -10 15 -10 8 0 15 2 15 4 0 2 -7 6 -15 10 -8 3
-15 1 -15 -4z"/>
<path d="M4350 406 c4 -4 16 -4 26 2 16 9 14 10 -8 9 -15 -1 -23 -6 -18 -11z"/>
<path d="M4420 410 c-8 -5 -10 -10 -5 -10 6 0 17 5 25 10 8 5 11 10 5 10 -5 0
-17 -5 -25 -10z"/>
<path d="M4630 410 c-13 -8 -13 -10 0 -10 11 0 11 -3 2 -12 -15 -15 -16 -28
-2 -28 6 0 9 4 8 9 -2 5 6 17 17 25 19 15 19 16 1 9 -13 -4 -17 -3 -12 5 9 14
6 15 -14 2z"/>
<path d="M4798 413 c7 -3 16 -2 19 1 4 3 -2 6 -13 5 -11 0 -14 -3 -6 -6z"/>
<path d="M4925 409 c-4 -6 -4 -13 -1 -16 3 -4 6 -1 6 6 0 7 5 9 12 5 7 -4 8
-3 4 4 -9 15 -13 15 -21 1z"/>
<path d="M4991 404 c0 -11 3 -14 6 -6 3 7 2 16 -1 19 -3 4 -6 -2 -5 -13z"/>
<path d="M5081 404 c0 -11 3 -14 6 -6 3 7 2 16 -1 19 -3 4 -6 -2 -5 -13z"/>
<path d="M5112 394 c-12 -15 -20 -29 -17 -32 3 -4 10 0 14 7 7 11 10 11 14 0
5 -11 6 -11 6 1 -2 31 1 41 13 34 7 -4 8 -3 4 4 -9 15 -7 16 -34 -14z"/>
<path d="M5357 403 c3 -7 6 -13 8 -13 2 0 5 6 8 13 3 8 -1 14 -8 14 -7 0 -11
-6 -8 -14z"/>
<path d="M5428 413 c6 -3 9 -10 5 -16 -5 -9 -3 -9 8 -1 8 6 24 10 37 8 12 -2
22 -1 22 4 0 4 -19 7 -42 8 -24 1 -37 -1 -30 -3z"/>
<path d="M5559 418 c-5 -18 -6 -38 -1 -34 7 8 12 36 6 36 -2 0 -4 -1 -5 -2z"/>
<path d="M5600 404 c-25 -15 -25 -15 -1 -8 18 5 22 3 16 -7 -5 -8 -4 -10 0 -6
7 6 17 38 12 37 -1 -1 -13 -7 -27 -16z"/>
<path d="M5690 408 c0 -4 4 -8 9 -8 6 0 12 4 15 8 3 5 -1 9 -9 9 -8 0 -15 -4
-15 -9z"/>
<path d="M5898 402 c-11 -15 -11 -15 3 -4 9 7 24 10 33 6 9 -3 16 -2 16 3 0
16 -38 12 -52 -5z"/>
<path d="M6375 410 c-3 -5 -1 -10 4 -10 6 0 11 5 11 10 0 6 -2 10 -4 10 -3 0
-8 -4 -11 -10z"/>
<path d="M7076 405 c-9 -26 -7 -32 5 -12 6 10 9 21 6 23 -2 3 -7 -2 -11 -11z"/>
<path d="M3469 393 c-13 -16 -12 -17 4 -4 16 13 21 21 13 21 -2 0 -10 -8 -17
-17z"/>
<path d="M4155 400 c6 -10 4 -12 -9 -7 -10 4 -15 3 -11 -4 4 -5 15 -7 26 -4
14 5 17 3 13 -9 -3 -9 -2 -16 4 -16 16 0 7 31 -13 42 -14 8 -16 8 -10 -2z"/>
<path d="M4552 401 c-11 -7 -10 -9 3 -14 9 -4 14 -3 10 2 -3 5 1 12 7 14 7 3
9 6 3 6 -5 0 -16 -3 -23 -8z"/>
<path d="M4777 399 c7 -7 15 -10 18 -7 3 3 -2 9 -12 12 -14 6 -15 5 -6 -5z"/>
<path d="M5395 400 c-3 -5 -1 -10 4 -10 6 0 11 5 11 10 0 6 -2 10 -4 10 -3 0
-8 -4 -11 -10z"/>
<path d="M2933 393 c4 -3 1 -13 -6 -22 -11 -14 -10 -14 5 -2 16 12 16 31 1 31
-4 0 -3 -3 0 -7z"/>
<path d="M3114 386 c1 -8 5 -18 8 -22 4 -3 5 1 4 10 -1 8 -5 18 -8 22 -4 3 -5
-1 -4 -10z"/>
<path d="M3270 386 c7 -7 13 -7 20 0 6 6 3 10 -10 10 -13 0 -16 -4 -10 -10z"/>
<path d="M3350 386 c7 -7 13 -7 20 0 6 6 3 10 -10 10 -13 0 -16 -4 -10 -10z"/>
<path d="M4024 386 c20 -16 20 -16 0 -32 -18 -14 -18 -15 4 -4 12 6 22 15 22
20 0 5 -10 14 -22 20 -22 11 -22 10 -4 -4z"/>
<path d="M4070 381 c14 -11 30 -21 35 -21 11 0 -7 14 -40 31 -13 7 -12 3 5
-10z"/>
<path d="M4230 390 c0 -5 5 -10 10 -10 6 0 10 5 10 10 0 6 -4 10 -10 10 -5 0
-10 -4 -10 -10z"/>
<path d="M4297 394 c-3 -3 -3 -13 0 -22 5 -14 3 -15 -8 -4 -7 6 -17 12 -22 12
-5 0 1 -9 15 -19 32 -26 63 -21 63 9 0 16 -7 24 -21 26 -12 2 -24 1 -27 -2z
m43 -24 c0 -9 -8 -16 -18 -17 -11 -1 -18 5 -18 17 0 12 7 18 18 17 10 -1 18
-8 18 -17z"/>
<path d="M4374 385 c-4 -8 -4 -22 0 -30 8 -21 36 -7 35 19 0 21 0 21 -9 -1
-13 -31 -24 -29 -16 2 7 27 -1 35 -10 10z"/>
<path d="M4450 391 c0 -5 4 -11 10 -13 6 -2 6 -9 0 -18 -7 -12 -11 -10 -19 10
-9 23 -10 23 -10 4 -1 -29 22 -37 41 -15 14 16 13 19 -3 30 -11 6 -19 7 -19 2z"/>
<path d="M4585 390 c-3 -5 -3 -14 0 -20 3 -5 1 -10 -4 -10 -6 0 -11 -5 -11
-11 0 -8 4 -8 14 0 12 10 17 8 27 -11 7 -13 11 -25 10 -28 -1 -2 3 -6 11 -8 8
-2 9 0 3 5 -5 4 -11 15 -13 23 -2 8 -10 22 -18 31 -16 18 -19 33 -4 24 6 -3
10 -1 10 4 0 14 -17 14 -25 1z"/>
<path d="M4690 391 c0 -6 5 -11 11 -11 5 0 7 -5 3 -12 -4 -6 0 -16 8 -22 8 -6
17 -19 21 -29 4 -10 11 -16 16 -13 5 4 12 1 14 -4 3 -6 4 -5 3 2 -2 7 -8 12
-14 11 -5 -1 -13 9 -16 23 -4 15 -11 22 -18 18 -7 -5 -9 -2 -5 9 3 8 -1 21 -9
27 -10 9 -14 9 -14 1z"/>
<path d="M4735 390 c-3 -5 0 -19 8 -31 10 -14 17 -17 22 -9 4 6 14 9 22 6 21
-9 53 12 47 29 -4 8 -11 15 -16 15 -6 0 -4 -8 3 -17 12 -15 12 -16 -4 -10 -11
4 -16 3 -12 -3 3 -6 1 -10 -4 -10 -6 0 -11 5 -11 11 0 5 -4 8 -9 5 -5 -4 -11
-3 -14 1 -2 5 -2 2 0 -5 1 -8 -3 -12 -9 -9 -7 2 -12 11 -10 21 3 18 -4 21 -13
6z"/>
<path d="M4890 389 c0 -5 -4 -8 -9 -5 -12 8 -68 -48 -63 -64 3 -7 0 -10 -6 -6
-6 4 -15 -2 -21 -12 -7 -14 -6 -19 4 -19 7 0 11 7 7 15 -3 10 -1 13 6 8 7 -4
16 2 21 16 5 13 18 31 30 40 19 16 21 16 34 -2 8 -11 17 -17 22 -12 4 4 5 -1
2 -11 -4 -10 -3 -16 2 -13 5 3 12 -1 15 -9 5 -13 9 -13 25 -3 11 7 18 14 16
17 -3 2 -12 -2 -22 -10 -15 -12 -16 -12 -9 6 4 11 4 17 1 13 -3 -3 -17 4 -30
16 -17 15 -21 24 -13 33 7 9 7 13 -1 13 -6 0 -11 -5 -11 -11z"/>
<path d="M5006 385 c-4 -12 -10 -13 -31 -3 -18 8 -29 8 -36 1 -14 -14 -1 -36
17 -29 8 3 14 1 14 -4 0 -6 5 -10 11 -10 8 0 7 6 -2 16 -12 15 -11 16 6 11 14
-5 24 -1 33 13 7 11 8 20 3 20 -5 0 -11 -7 -15 -15z m-41 -15 c-3 -5 -10 -10
-16 -10 -5 0 -9 5 -9 10 0 6 7 10 16 10 8 0 12 -4 9 -10z"/>
<path d="M6236 392 c-3 -5 1 -9 9 -9 8 0 12 4 9 9 -3 4 -7 8 -9 8 -2 0 -6 -4
-9 -8z"/>
<path d="M6853 385 c0 -8 4 -12 9 -9 5 3 6 10 3 15 -9 13 -12 11 -12 -6z"/>
<path d="M6934 392 c4 -3 14 -7 22 -8 9 -1 13 0 10 4 -4 3 -14 7 -22 8 -9 1
-13 0 -10 -4z"/>
<path d="M3415 380 c-4 -6 -12 -7 -18 -4 -7 4 -9 4 -5 -1 4 -4 2 -15 -4 -24
-10 -12 -7 -12 8 2 11 9 23 15 26 12 2 -3 5 2 5 10 0 18 -3 19 -12 5z"/>
<path d="M3908 383 c6 -2 18 -2 25 0 6 3 1 5 -13 5 -14 0 -19 -2 -12 -5z"/>
<path d="M3990 381 c13 -10 13 -12 0 -22 -13 -9 -13 -10 0 -6 8 2 15 10 15 17
0 7 -7 15 -15 17 -13 4 -13 3 0 -6z"/>
<path d="M4670 370 c0 -11 4 -20 9 -20 5 0 7 9 4 20 -3 11 -7 20 -9 20 -2 0
-4 -9 -4 -20z"/>
<path d="M5470 381 c0 -10 19 -25 25 -20 1 2 -3 10 -11 17 -8 7 -14 8 -14 3z"/>
<path d="M5654 373 c1 -12 6 -26 11 -30 4 -5 4 -2 0 6 -6 11 -4 13 8 8 11 -4
14 -2 10 8 -3 8 -9 13 -13 10 -5 -3 -11 1 -14 7 -2 7 -4 3 -2 -9z"/>
<path d="M5742 370 c0 -14 2 -19 5 -12 2 6 2 18 0 25 -3 6 -5 1 -5 -13z"/>
<path d="M5861 374 c0 -11 3 -14 6 -6 3 7 2 16 -1 19 -3 4 -6 -2 -5 -13z"/>
<path d="M6054 376 c1 -8 5 -18 8 -22 4 -3 5 1 4 10 -1 8 -5 18 -8 22 -4 3 -5
-1 -4 -10z"/>
<path d="M6430 386 c0 -2 8 -10 18 -17 15 -13 16 -12 3 4 -13 16 -21 21 -21
13z"/>
<path d="M6553 375 c0 -8 4 -15 9 -15 4 0 8 4 8 9 0 6 -4 12 -8 15 -5 3 -9 -1
-9 -9z"/>
<path d="M6594 379 c-3 -6 -2 -15 3 -20 5 -5 9 -1 9 11 0 23 -2 24 -12 9z"/>
<path d="M2716 368 c3 -5 10 -6 15 -3 13 9 11 12 -6 12 -8 0 -12 -4 -9 -9z"/>
<path d="M3200 365 c-7 -8 -9 -15 -5 -15 4 0 1 -8 -6 -17 -13 -16 -12 -17 4
-4 9 8 15 16 12 19 -3 3 0 11 6 19 6 7 9 13 6 13 -2 0 -10 -7 -17 -15z"/>
<path d="M3306 372 c-2 -4 4 -8 14 -8 10 0 16 4 14 8 -3 4 -9 8 -14 8 -5 0
-11 -4 -14 -8z"/>
<path d="M3593 363 c0 -9 4 -10 12 -3 7 5 15 7 18 3 4 -3 7 -1 7 5 0 6 -8 10
-18 9 -10 0 -19 -7 -19 -14z"/>
<path d="M3730 376 c0 -2 7 -7 16 -10 8 -3 12 -2 9 4 -6 10 -25 14 -25 6z"/>
<path d="M3792 368 c2 -6 10 -13 16 -14 7 -1 8 0 2 3 -5 2 -8 9 -4 14 3 5 0 9
-6 9 -7 0 -10 -5 -8 -12z"/>
<path d="M3872 368 c2 -6 10 -13 16 -14 7 -1 8 0 2 3 -5 2 -8 9 -4 14 3 5 0 9
-6 9 -7 0 -10 -5 -8 -12z"/>
<path d="M4127 369 c7 -7 15 -10 18 -7 3 3 -2 9 -12 12 -14 6 -15 5 -6 -5z"/>
<path d="M4210 373 c5 -2 10 -9 10 -14 0 -6 -4 -8 -9 -4 -5 3 -12 1 -15 -4 -4
-5 2 -8 11 -7 21 3 24 28 5 32 -7 1 -8 0 -2 -3z"/>
<path d="M5190 370 c0 -5 5 -10 10 -10 6 0 10 5 10 10 0 6 -4 10 -10 10 -5 0
-10 -4 -10 -10z"/>
<path d="M5340 370 c-9 -6 -10 -10 -3 -10 6 0 15 5 18 10 8 12 4 12 -15 0z"/>
<path d="M5370 370 c0 -5 5 -10 10 -10 6 0 10 5 10 10 0 6 -4 10 -10 10 -5 0
-10 -4 -10 -10z"/>
<path d="M5405 370 c-3 -6 1 -7 9 -4 18 7 21 14 7 14 -6 0 -13 -4 -16 -10z"/>
<path d="M5513 358 c-2 -18 0 -20 7 -8 12 18 13 30 2 30 -4 0 -9 -10 -9 -22z"/>
<path d="M5564 369 c-3 -6 -2 -15 4 -21 6 -6 12 -6 17 3 5 8 4 10 -3 5 -7 -4
-12 -3 -12 3 0 5 6 12 13 14 9 4 9 6 0 6 -6 1 -15 -4 -19 -10z"/>
<path d="M5625 369 c-4 -6 -5 -12 -2 -15 2 -3 7 2 10 11 7 17 1 20 -8 4z"/>
<path d="M5766 367 c3 -10 9 -15 12 -12 3 3 0 11 -7 18 -10 9 -11 8 -5 -6z"/>
<path d="M5985 369 c-4 -6 -4 -13 -1 -16 3 -4 6 -1 6 6 0 7 5 9 10 6 6 -3 10
-1 10 4 0 14 -17 14 -25 0z"/>
<path d="M3470 366 c0 -2 8 -10 18 -17 15 -13 16 -12 3 4 -13 16 -21 21 -21
13z"/>
<path d="M3513 355 c0 -8 10 -23 21 -32 21 -18 21 -18 4 2 -9 11 -17 24 -16
28 0 5 -2 11 -4 13 -3 2 -5 -3 -5 -11z"/>
<path d="M3670 360 c-9 -6 -10 -10 -3 -10 6 0 15 5 18 10 8 12 4 12 -15 0z"/>
<path d="M3917 359 c7 -7 15 -10 18 -7 3 3 -2 9 -12 12 -14 6 -15 5 -6 -5z"/>
<path d="M5424 355 c-18 -14 -18 -14 4 -8 12 3 22 9 22 14 0 12 -3 11 -26 -6z"/>
<path d="M5949 353 c-13 -16 -12 -17 4 -4 9 7 17 15 17 17 0 8 -8 3 -21 -13z"/>
<path d="M2573 345 c0 -8 4 -12 9 -9 5 3 6 10 3 15 -9 13 -12 11 -12 -6z"/>
<path d="M2810 350 c0 -5 5 -10 11 -10 5 0 7 5 4 10 -3 6 -8 10 -11 10 -2 0
-4 -4 -4 -10z"/>
<path d="M3230 352 c0 -5 7 -9 15 -9 8 0 12 4 9 9 -3 4 -9 8 -15 8 -5 0 -9 -4
-9 -8z"/>
<path d="M3548 353 c6 -3 10 -9 6 -14 -8 -14 2 -11 14 4 8 10 6 13 -11 14 -12
0 -16 -1 -9 -4z"/>
<path d="M3725 352 c-13 -9 -17 -32 -6 -32 5 0 11 9 14 20 6 22 6 22 -8 12z"/>
<path d="M4056 351 c-4 -5 -1 -13 5 -17 8 -4 9 -3 5 4 -4 7 -3 12 3 12 5 0 12
-5 14 -10 3 -6 4 -5 3 2 -3 16 -23 22 -30 9z"/>
<path d="M4254 346 c-3 -9 -4 -20 0 -23 3 -4 6 1 6 11 0 9 5 14 10 11 6 -4 8
-16 5 -28 -5 -20 -5 -20 6 -3 9 14 8 21 -5 34 -14 14 -16 14 -22 -2z"/>
<path d="M4477 347 c-4 -10 -3 -16 2 -13 5 3 11 -3 14 -13 4 -15 10 -18 28
-14 22 6 23 5 9 -13 -14 -18 -14 -18 2 -5 21 15 14 34 -10 29 -11 -2 -21 6
-28 21 -9 22 -11 23 -17 8z"/>
<path d="M5076 344 c19 -15 19 -16 -1 -9 -15 5 -17 3 -8 -6 17 -17 37 -1 22
17 -6 8 -16 14 -22 14 -6 0 -2 -7 9 -16z"/>
<path d="M5148 353 c6 -2 18 -2 25 0 6 3 1 5 -13 5 -14 0 -19 -2 -12 -5z"/>
<path d="M5219 353 c-1 -4 -1 -11 0 -15 2 -12 -17 -10 -22 2 -3 6 -4 5 -3 -2
2 -7 9 -13 17 -13 8 0 13 6 12 13 -2 6 6 12 18 12 11 0 18 -4 14 -9 -9 -15 15
-25 28 -12 9 9 8 11 -6 5 -12 -4 -17 -2 -15 7 2 8 -7 15 -19 17 -13 2 -24 0
-24 -5z"/>
<path d="M5535 351 c-6 -11 13 -26 22 -17 4 3 1 6 -6 6 -7 0 -9 5 -6 10 3 6 4
10 1 10 -3 0 -7 -4 -11 -9z"/>
<path d="M5596 343 c-6 -14 -5 -15 5 -6 7 7 10 15 7 18 -3 3 -9 -2 -12 -12z"/>
<path d="M6112 341 c7 -9 13 -18 15 -20 1 -2 1 5 0 16 0 11 -7 20 -14 20 -10
0 -10 -4 -1 -16z"/>
<path d="M6150 346 c7 -7 13 -7 20 0 6 6 3 10 -10 10 -13 0 -16 -4 -10 -10z"/>
<path d="M6230 346 c7 -7 13 -7 20 0 6 6 3 10 -10 10 -13 0 -16 -4 -10 -10z"/>
<path d="M6275 351 c-3 -5 -2 -12 3 -15 5 -3 9 1 9 9 0 17 -3 19 -12 6z"/>
<path d="M6750 355 c0 -7 30 -13 34 -7 3 4 -4 9 -15 9 -10 1 -19 0 -19 -2z"/>
<path d="M6875 349 c-3 -4 2 -6 10 -5 21 3 28 13 10 13 -9 0 -18 -4 -20 -8z"/>
<path d="M2913 335 c0 -8 4 -12 9 -9 5 3 6 10 3 15 -9 13 -12 11 -12 -6z"/>
<path d="M3291 337 c-8 -10 -7 -14 2 -14 8 0 14 6 14 14 0 7 -1 13 -2 13 -2 0
-8 -6 -14 -13z"/>
<path d="M3330 346 c0 -2 8 -10 18 -17 15 -13 16 -12 3 4 -13 16 -21 21 -21
13z"/>
<path d="M3406 335 c-18 -14 -18 -14 1 -12 11 0 20 7 20 14 0 7 -1 13 -1 13
-1 0 -9 -7 -20 -15z"/>
<path d="M3453 335 c0 -8 3 -13 5 -10 3 3 12 -1 21 -7 10 -8 9 -4 -3 10 -23
26 -23 26 -23 7z"/>
<path d="M4116 335 c-3 -8 -1 -15 4 -15 6 0 10 7 10 15 0 8 -2 15 -4 15 -2 0
-6 -7 -10 -15z"/>
<path d="M4150 341 c0 -6 5 -13 12 -17 6 -4 8 -3 4 4 -3 5 0 13 6 15 8 3 6 6
-4 6 -10 1 -18 -3 -18 -8z"/>
<path d="M4518 343 c7 -3 16 -2 19 1 4 3 -2 6 -13 5 -11 0 -14 -3 -6 -6z"/>
<path d="M4630 346 c0 -2 9 -6 20 -9 11 -3 18 -1 14 4 -5 9 -34 13 -34 5z"/>
<path d="M4861 341 c-19 -12 -7 -40 16 -37 10 2 22 -2 26 -8 6 -7 7 -6 4 4 -2
8 -14 14 -26 14 -12 -1 -20 3 -18 10 3 6 10 10 16 9 6 -2 11 2 11 7 0 12 -10
13 -29 1z"/>
<path d="M5110 340 c0 -5 5 -10 10 -10 6 0 10 5 10 10 0 6 -4 10 -10 10 -5 0
-10 -4 -10 -10z"/>
<path d="M5310 335 c0 -8 4 -15 8 -15 5 0 9 7 9 15 0 8 -4 15 -9 15 -4 0 -8
-7 -8 -15z"/>
<path d="M5350 341 c0 -5 7 -11 14 -14 10 -4 13 -1 9 9 -6 15 -23 19 -23 5z"/>
<path d="M5393 324 c0 -17 2 -22 7 -13 5 6 6 18 3 26 -8 19 -10 16 -10 -13z"/>
<path d="M5845 340 c-16 -7 -17 -9 -3 -9 9 -1 20 4 23 9 7 11 7 11 -20 0z"/>
<path d="M2445 330 c-3 -6 1 -7 9 -4 18 7 21 14 7 14 -6 0 -13 -4 -16 -10z"/>
<path d="M2490 336 c0 -2 7 -7 16 -10 8 -3 12 -2 9 4 -6 10 -25 14 -25 6z"/>
<path d="M2950 328 c0 -4 4 -8 9 -8 6 0 12 4 15 8 3 5 -1 9 -9 9 -8 0 -15 -4
-15 -9z"/>
<path d="M3639 338 c-4 -12 -5 -57 0 -53 6 6 10 55 4 55 -1 0 -3 -1 -4 -2z"/>
<path d="M3886 328 c3 -5 10 -6 15 -3 13 9 11 12 -6 12 -8 0 -12 -4 -9 -9z"/>
<path d="M3944 328 c9 -5 23 -5 32 0 12 6 7 9 -16 9 -23 0 -28 -3 -16 -9z"/>
<path d="M4025 329 c-4 -6 -4 -13 -1 -16 3 -4 6 -1 6 6 0 7 5 9 12 5 7 -4 8
-3 4 4 -9 15 -13 15 -21 1z"/>
<path d="M4356 325 c4 -8 8 -15 10 -15 2 0 4 7 4 15 0 8 -4 15 -10 15 -5 0 -7
-7 -4 -15z"/>
<path d="M4410 330 c0 -5 5 -10 10 -10 6 0 10 5 10 10 0 6 -4 10 -10 10 -5 0
-10 -4 -10 -10z"/>
<path d="M4550 331 c0 -5 5 -13 10 -16 6 -3 10 -2 10 4 0 5 -4 13 -10 16 -5 3
-10 2 -10 -4z"/>
<path d="M4591 324 c0 -11 3 -14 6 -6 3 7 2 16 -1 19 -3 4 -6 -2 -5 -13z"/>
<path d="M4770 330 c0 -5 5 -10 10 -10 6 0 10 5 10 10 0 6 -4 10 -10 10 -5 0
-10 -4 -10 -10z"/>
<path d="M5150 326 c7 -7 13 -7 20 0 6 6 3 10 -10 10 -13 0 -16 -4 -10 -10z"/>
<path d="M5470 332 c0 -6 9 -12 20 -15 11 -3 20 -3 20 -1 0 2 -9 8 -20 14 -11
6 -20 7 -20 2z"/>
<path d="M5637 326 c-3 -8 0 -17 7 -19 10 -4 12 1 9 14 -6 23 -9 24 -16 5z"/>
<path d="M5747 329 c7 -9 10 -19 6 -22 -3 -4 -1 -7 5 -7 17 0 15 16 -5 31 -16
12 -17 12 -6 -2z"/>
<path d="M5960 335 c0 -2 6 -8 13 -14 10 -8 14 -7 14 2 0 8 -6 14 -14 14 -7 0
-13 -1 -13 -2z"/>
<path d="M6045 329 c3 -4 13 -6 23 -4 9 1 24 -2 32 -8 12 -9 13 -9 2 3 -13 15
-65 23 -57 9z"/>
<path d="M6190 330 c0 -5 5 -10 11 -10 5 0 7 5 4 10 -3 6 -8 10 -11 10 -2 0
-4 -4 -4 -10z"/>
<path d="M6670 330 c0 -5 5 -10 11 -10 5 0 7 5 4 10 -3 6 -8 10 -11 10 -2 0
-4 -4 -4 -10z"/>
<path d="M6716 328 c3 -5 10 -6 15 -3 13 9 11 12 -6 12 -8 0 -12 -4 -9 -9z"/>
<path d="M2715 319 c-4 -6 -5 -12 -2 -15 2 -3 7 2 10 11 7 17 1 20 -8 4z"/>
<path d="M3749 313 c-13 -16 -12 -17 4 -4 9 7 17 15 17 17 0 8 -8 3 -21 -13z"/>
<path d="M3840 326 c0 -2 7 -7 16 -10 8 -3 12 -2 9 4 -6 10 -25 14 -25 6z"/>
<path d="M3999 323 c-1 -5 -1 -12 0 -17 1 -5 -5 -6 -14 -2 -10 3 -14 2 -10 -5
9 -14 28 -6 31 14 1 9 0 17 -2 17 -2 0 -5 -3 -5 -7z"/>
<path d="M4305 317 c-14 -11 -15 -16 -5 -22 9 -5 11 -4 6 3 -4 7 -1 12 8 12 9
0 16 5 16 10 0 13 -3 13 -25 -3z"/>
<path d="M4395 313 c5 -19 3 -22 -12 -17 -15 5 -15 4 -3 -5 21 -14 35 3 21 26
-11 16 -11 16 -6 -4z"/>
<path d="M5873 317 c0 -8 6 -14 14 -14 9 0 10 4 2 14 -6 7 -12 13 -14 13 -1 0
-2 -6 -2 -13z"/>
<path d="M2806 312 c-3 -5 1 -9 9 -9 8 0 12 4 9 9 -3 4 -7 8 -9 8 -2 0 -6 -4
-9 -8z"/>
<path d="M2855 310 c3 -5 8 -10 11 -10 2 0 4 5 4 10 0 6 -5 10 -11 10 -5 0 -7
-4 -4 -10z"/>
<path d="M3500 316 c0 -2 8 -10 18 -17 15 -13 16 -12 3 4 -13 16 -21 21 -21
13z"/>
<path d="M3584 312 c4 -3 14 -7 22 -8 9 -1 13 0 10 4 -4 3 -14 7 -22 8 -9 1
-13 0 -10 -4z"/>
<path d="M3676 312 c-3 -5 1 -9 9 -9 8 0 12 4 9 9 -3 4 -7 8 -9 8 -2 0 -6 -4
-9 -8z"/>
<path d="M4056 311 c-3 -5 1 -14 9 -21 8 -7 13 -16 10 -20 -3 -5 -1 -11 4 -15
6 -3 8 4 6 17 -3 13 -9 24 -15 26 -6 2 -8 8 -4 13 3 5 3 9 0 9 -3 0 -7 -4 -10
-9z"/>
<path d="M4175 309 c-6 -8 -4 -10 5 -4 10 6 12 4 6 -11 -6 -15 -5 -17 5 -6 9
9 10 15 2 23 -8 8 -13 7 -18 -2z"/>
<path d="M4474 296 c3 -16 8 -31 11 -35 3 -3 4 7 1 23 -3 16 -8 31 -11 35 -3
3 -4 -7 -1 -23z"/>
<path d="M4656 312 c-3 -4 0 -14 6 -22 8 -12 9 -12 4 3 -4 13 -1 17 12 15 9
-2 21 -7 25 -13 5 -6 7 -4 5 4 -4 16 -44 25 -52 13z"/>
<path d="M4990 310 c0 -5 5 -10 10 -10 6 0 10 5 10 10 0 6 -4 10 -10 10 -5 0
-10 -4 -10 -10z"/>
<path d="M5099 318 c-6 -13 -4 -46 2 -42 4 2 5 12 2 21 -5 13 -3 13 20 -2 15
-9 27 -15 27 -12 0 5 -49 39 -51 35z"/>
<path d="M5230 310 c0 -5 5 -10 10 -10 6 0 10 5 10 10 0 6 -4 10 -10 10 -5 0
-10 -4 -10 -10z"/>
<path d="M5295 295 c0 -13 3 -21 8 -18 4 2 7 10 7 18 0 8 -3 16 -7 18 -5 3 -8
-5 -8 -18z"/>
<path d="M5336 311 c-3 -5 1 -14 9 -21 8 -7 13 -16 10 -20 -3 -5 -1 -11 4 -15
6 -3 8 4 6 17 -3 13 -9 24 -15 26 -6 2 -8 8 -4 13 3 5 3 9 0 9 -3 0 -7 -4 -10
-9z"/>
<path d="M5415 310 c-3 -6 2 -13 12 -17 10 -3 21 -8 25 -10 4 -2 10 1 13 7 4
6 3 10 -2 9 -22 -4 -43 2 -38 11 3 6 4 10 1 10 -3 0 -8 -5 -11 -10z"/>
<path d="M5516 305 c-9 -26 -7 -32 5 -12 6 10 9 21 6 23 -2 3 -7 -2 -11 -11z"/>
<path d="M5675 311 c-3 -5 0 -13 6 -17 7 -4 9 -3 5 4 -3 5 0 13 6 15 9 4 10 6
1 6 -6 1 -14 -3 -18 -8z"/>
<path d="M5824 312 c4 -3 14 -7 22 -8 9 -1 13 0 10 4 -4 3 -14 7 -22 8 -9 1
-13 0 -10 -4z"/>
<path d="M5916 311 c-3 -5 2 -15 12 -22 15 -12 16 -12 5 2 -7 9 -10 19 -6 22
3 4 4 7 0 7 -3 0 -8 -4 -11 -9z"/>
<path d="M5953 304 c16 -20 52 -30 41 -12 -4 5 -9 7 -12 4 -3 -3 -15 2 -26 11
-21 18 -21 18 -3 -3z"/>
<path d="M6754 312 c4 -3 14 -7 22 -8 9 -1 13 0 10 4 -4 3 -14 7 -22 8 -9 1
-13 0 -10 -4z"/>
<path d="M6814 312 c4 -3 14 -7 22 -8 9 -1 13 0 10 4 -4 3 -14 7 -22 8 -9 1
-13 0 -10 -4z"/>
<path d="M3419 308 c-5 -18 -6 -38 -1 -34 7 8 12 36 6 36 -2 0 -4 -1 -5 -2z"/>
<path d="M3459 298 c15 -21 31 -23 31 -6 0 6 -3 8 -7 5 -3 -4 -13 -1 -22 6
-14 11 -14 10 -2 -5z"/>
<path d="M4250 296 c0 -8 4 -17 9 -20 5 -4 7 3 4 14 -6 23 -13 26 -13 6z"/>
<path d="M6435 301 c-3 -5 -2 -12 3 -15 5 -3 9 1 9 9 0 17 -3 19 -12 6z"/>
<path d="M7115 301 c-3 -5 -2 -12 3 -15 5 -3 9 1 9 9 0 17 -3 19 -12 6z"/>
<path d="M2945 290 c-3 -6 1 -7 9 -4 18 7 21 14 7 14 -6 0 -13 -4 -16 -10z"/>
<path d="M3070 290 c0 -5 5 -10 11 -10 5 0 7 5 4 10 -3 6 -8 10 -11 10 -2 0
-4 -4 -4 -10z"/>
<path d="M3759 290 c-3 -20 -4 -25 -13 -40 -7 -12 -6 -13 4 -3 13 12 25 53 15
53 -3 0 -6 -4 -6 -10z"/>
<path d="M3859 283 c-13 -16 -12 -17 4 -4 9 7 17 15 17 17 0 8 -8 3 -21 -13z"/>
<path d="M3933 285 c0 -8 4 -12 9 -9 5 3 6 10 3 15 -9 13 -12 11 -12 -6z"/>
<path d="M4016 283 c-6 -14 -5 -15 5 -6 7 7 10 15 7 18 -3 3 -9 -2 -12 -12z"/>
<path d="M4144 281 c0 -11 5 -17 13 -14 10 4 11 9 2 19 -15 18 -15 18 -15 -5z"/>
<path d="M4560 290 c-12 -7 -10 -9 8 -7 12 0 22 5 22 9 0 11 -12 10 -30 -2z"/>
<path d="M4827 280 c-3 -11 -3 -20 -1 -20 2 0 8 9 14 20 6 11 7 20 2 20 -6 0
-12 -9 -15 -20z"/>
<path d="M4951 282 c-7 -14 -6 -18 9 -18 15 0 17 3 7 15 -10 12 -9 14 6 8 11
-4 16 -3 12 3 -9 15 -23 12 -34 -8z"/>
<path d="M5034 288 c-4 -6 -3 -8 4 -4 5 3 13 0 15 -6 3 -8 6 -6 6 5 1 19 -14
23 -25 5z"/>
<path d="M5187 288 c6 -7 9 -21 8 -30 -2 -10 0 -20 4 -23 7 -3 7 18 2 58 -1 4
-6 7 -12 7 -8 0 -8 -4 -2 -12z"/>
<path d="M5270 280 c-6 -11 -8 -20 -6 -20 3 0 10 9 16 20 6 11 8 20 6 20 -3 0
-10 -9 -16 -20z"/>
<path d="M6086 292 c-3 -5 1 -9 9 -9 8 0 12 4 9 9 -3 4 -7 8 -9 8 -2 0 -6 -4
-9 -8z"/>
<path d="M4215 280 c-3 -6 1 -7 9 -4 18 7 21 14 7 14 -6 0 -13 -4 -16 -10z"/>
<path d="M4877 283 c-10 -9 -9 -23 1 -23 5 0 9 7 9 15 0 17 -1 18 -10 8z"/>
<path d="M5709 273 c-13 -16 -12 -17 4 -4 9 7 17 15 17 17 0 8 -8 3 -21 -13z"/>
<path d="M2966 268 c3 -5 10 -6 15 -3 13 9 11 12 -6 12 -8 0 -12 -4 -9 -9z"/>
<path d="M3255 270 c3 -5 8 -10 11 -10 2 0 4 5 4 10 0 6 -5 10 -11 10 -5 0 -7
-4 -4 -10z"/>
<path d="M3510 269 c0 -5 5 -7 10 -4 6 3 10 8 10 11 0 2 -4 4 -10 4 -5 0 -10
-5 -10 -11z"/>
<path d="M4348 273 c6 -3 10 -9 6 -14 -8 -14 2 -11 14 4 8 10 6 13 -11 14 -12
0 -16 -1 -9 -4z"/>
<path d="M4595 271 c-3 -5 0 -13 6 -17 7 -4 9 -3 5 4 -3 5 0 13 6 15 9 4 10 6
1 6 -6 1 -14 -3 -18 -8z"/>
<path d="M5387 269 c7 -7 15 -10 18 -7 3 3 -2 9 -12 12 -14 6 -15 5 -6 -5z"/>
<path d="M5426 272 c-3 -5 1 -9 9 -9 8 0 12 4 9 9 -3 4 -7 8 -9 8 -2 0 -6 -4
-9 -8z"/>
<path d="M5580 275 c0 -2 6 -8 13 -14 10 -8 14 -7 14 2 0 8 -6 14 -14 14 -7 0
-13 -1 -13 -2z"/>
<path d="M5632 261 c7 -9 13 -18 15 -20 1 -2 1 5 0 16 0 11 -7 20 -14 20 -10
0 -10 -4 -1 -16z"/>
<path d="M5666 268 c3 -5 10 -6 15 -3 13 9 11 12 -6 12 -8 0 -12 -4 -9 -9z"/>
<path d="M6596 272 c-3 -5 1 -9 9 -9 8 0 12 4 9 9 -3 4 -7 8 -9 8 -2 0 -6 -4
-9 -8z"/>
<path d="M3475 261 c-3 -5 -2 -12 3 -15 5 -3 9 1 9 9 0 17 -3 19 -12 6z"/>
<path d="M3955 260 c-4 -6 -11 -7 -17 -4 -7 4 -8 2 -4 -5 6 -9 11 -9 22 0 14
11 18 19 10 19 -3 0 -8 -5 -11 -10z"/>
<path d="M4166 255 c-18 -14 -18 -14 1 -12 11 0 20 7 20 14 0 7 -1 13 -1 13
-1 0 -9 -7 -20 -15z"/>
<path d="M4279 268 c-5 -18 -6 -38 -1 -34 7 8 12 36 6 36 -2 0 -4 -1 -5 -2z"/>
<path d="M4455 260 c-4 -6 -12 -7 -18 -4 -7 4 -8 3 -4 -1 13 -15 34 -14 34 1
0 17 -4 18 -12 4z"/>
<path d="M4650 260 c-9 -6 -10 -10 -3 -10 6 0 15 5 18 10 8 12 4 12 -15 0z"/>
<path d="M6389 253 c-13 -16 -12 -17 4 -4 9 7 17 15 17 17 0 8 -8 3 -21 -13z"/>
<path d="M6556 257 c3 -10 9 -15 12 -12 3 3 0 11 -7 18 -10 9 -11 8 -5 -6z"/>
<path d="M3373 241 c0 -11 5 -18 9 -15 4 3 5 11 1 19 -7 21 -12 19 -10 -4z"/>
<path d="M3417 245 c-4 -8 -3 -16 1 -19 4 -3 9 4 9 15 2 23 -3 25 -10 4z"/>
<path d="M3870 256 c0 -2 7 -7 16 -10 8 -3 12 -2 9 4 -6 10 -25 14 -25 6z"/>
<path d="M3999 243 c-13 -16 -12 -17 4 -4 16 13 21 21 13 21 -2 0 -10 -8 -17
-17z"/>
<path d="M4330 251 c0 -6 4 -13 10 -16 6 -3 7 1 4 9 -7 18 -14 21 -14 7z"/>
<path d="M4751 237 c-13 -21 -12 -21 5 -5 10 10 16 20 13 22 -3 3 -11 -5 -18
-17z"/>
<path d="M5053 243 c0 -8 5 -9 11 -4 6 5 19 7 28 6 10 -2 20 0 22 4 3 4 -10 7
-28 7 -20 0 -33 -5 -33 -13z"/>
<path d="M5850 249 c0 -5 5 -7 10 -4 6 3 10 8 10 11 0 2 -4 4 -10 4 -5 0 -10
-5 -10 -11z"/>
<path d="M6075 250 c-3 -5 -1 -10 4 -10 6 0 11 5 11 10 0 6 -2 10 -4 10 -3 0
-8 -4 -11 -10z"/>
<path d="M6430 255 c0 -5 5 -17 10 -25 5 -8 10 -10 10 -5 0 6 -5 17 -10 25 -5
8 -10 11 -10 5z"/>
<path d="M3113 235 c0 -8 4 -12 9 -9 5 3 6 10 3 15 -9 13 -12 11 -12 -6z"/>
<path d="M5933 235 c0 -8 4 -12 9 -9 5 3 6 10 3 15 -9 13 -12 11 -12 -6z"/>
<path d="M6015 241 c-3 -5 -2 -12 3 -15 5 -3 9 1 9 9 0 17 -3 19 -12 6z"/>
<path d="M3155 230 c3 -5 8 -10 11 -10 2 0 4 5 4 10 0 6 -5 10 -11 10 -5 0 -7
-4 -4 -10z"/>
<path d="M3230 229 c0 -5 5 -7 10 -4 6 3 10 8 10 11 0 2 -4 4 -10 4 -5 0 -10
-5 -10 -11z"/>
<path d="M3286 232 c-3 -5 1 -9 9 -9 8 0 12 4 9 9 -3 4 -7 8 -9 8 -2 0 -6 -4
-9 -8z"/>
<path d="M4230 236 c0 -2 7 -7 16 -10 8 -3 12 -2 9 4 -6 10 -25 14 -25 6z"/>
<path d="M4510 228 c0 -4 4 -8 9 -8 6 0 12 4 15 8 3 5 -1 9 -9 9 -8 0 -15 -4
-15 -9z"/>
<path d="M4820 235 c0 -2 6 -8 13 -14 10 -8 14 -7 14 2 0 8 -6 14 -14 14 -7 0
-13 -1 -13 -2z"/>
<path d="M4986 228 c3 -4 9 -8 15 -8 5 0 9 4 9 8 0 5 -7 9 -15 9 -8 0 -12 -4
-9 -9z"/>
<path d="M5146 228 c3 -4 9 -8 15 -8 5 0 9 4 9 8 0 5 -7 9 -15 9 -8 0 -12 -4
-9 -9z"/>
<path d="M5775 230 c3 -5 8 -10 11 -10 2 0 4 5 4 10 0 6 -5 10 -11 10 -5 0 -7
-4 -4 -10z"/>
<path d="M5970 229 c0 -5 5 -7 10 -4 6 3 10 8 10 11 0 2 -4 4 -10 4 -5 0 -10
-5 -10 -11z"/>
<path d="M6114 232 c4 -3 14 -7 22 -8 9 -1 13 0 10 4 -4 3 -14 7 -22 8 -9 1
-13 0 -10 -4z"/>
<path d="M6215 230 c-3 -5 -1 -10 4 -10 6 0 11 5 11 10 0 6 -2 10 -4 10 -3 0
-8 -4 -11 -10z"/>
<path d="M5630 226 c0 -2 8 -10 18 -17 15 -13 16 -12 3 4 -13 16 -21 21 -21
13z"/>
<path d="M3999 203 c-13 -16 -12 -17 4 -4 16 13 21 21 13 21 -2 0 -10 -8 -17
-17z"/>
<path d="M4130 209 c0 -5 5 -7 10 -4 6 3 10 8 10 11 0 2 -4 4 -10 4 -5 0 -10
-5 -10 -11z"/>
<path d="M4186 212 c-3 -5 1 -9 9 -9 8 0 12 4 9 9 -3 4 -7 8 -9 8 -2 0 -6 -4
-9 -8z"/>
<path d="M5066 208 c3 -5 10 -6 15 -3 13 9 11 12 -6 12 -8 0 -12 -4 -9 -9z"/>
<path d="M5875 211 c-3 -5 -2 -12 3 -15 5 -3 9 1 9 9 0 17 -3 19 -12 6z"/>
<path d="M4535 201 c-3 -5 -2 -12 3 -15 5 -3 9 1 9 9 0 17 -3 19 -12 6z"/>
<path d="M4895 201 c-3 -5 -2 -12 3 -15 5 -3 9 1 9 9 0 17 -3 19 -12 6z"/>
<path d="M3710 190 c0 -5 5 -10 11 -10 5 0 7 5 4 10 -3 6 -8 10 -11 10 -2 0
-4 -4 -4 -10z"/>
<path d="M3755 190 c-3 -5 -1 -10 4 -10 6 0 11 5 11 10 0 6 -2 10 -4 10 -3 0
-8 -4 -11 -10z"/>
<path d="M3846 192 c-3 -5 1 -9 9 -9 8 0 12 4 9 9 -3 4 -7 8 -9 8 -2 0 -6 -4
-9 -8z"/>
<path d="M3894 192 c4 -3 14 -7 22 -8 9 -1 13 0 10 4 -4 3 -14 7 -22 8 -9 1
-13 0 -10 -4z"/>
<path d="M3956 192 c-3 -5 1 -9 9 -9 8 0 12 4 9 9 -3 4 -7 8 -9 8 -2 0 -6 -4
-9 -8z"/>
<path d="M4070 195 c0 -7 30 -13 34 -7 3 4 -4 9 -15 9 -10 1 -19 0 -19 -2z"/>
<path d="M4250 190 c0 -5 5 -10 11 -10 5 0 7 5 4 10 -3 6 -8 10 -11 10 -2 0
-4 -4 -4 -10z"/>
<path d="M4495 190 c3 -5 8 -10 11 -10 2 0 4 5 4 10 0 6 -5 10 -11 10 -5 0 -7
-4 -4 -10z"/>
<path d="M4735 190 c-3 -5 -1 -10 4 -10 6 0 11 5 11 10 0 6 -2 10 -4 10 -3 0
-8 -4 -11 -10z"/>
<path d="M4855 190 c3 -5 8 -10 11 -10 2 0 4 5 4 10 0 6 -5 10 -11 10 -5 0 -7
-4 -4 -10z"/>
<path d="M5356 188 c3 -4 11 -5 19 -1 21 7 19 12 -4 10 -11 0 -18 -5 -15 -9z"/>
<path d="M5536 191 c-3 -5 2 -15 12 -22 15 -12 16 -12 5 2 -7 9 -10 19 -6 22
3 4 4 7 0 7 -3 0 -8 -4 -11 -9z"/>
<path d="M4593 175 c0 -8 4 -12 9 -9 5 3 6 10 3 15 -9 13 -12 11 -12 -6z"/>
<path d="M4873 135 c0 -8 4 -12 9 -9 5 3 6 10 3 15 -9 13 -12 11 -12 -6z"/>
</g>
</svg>
